<mxfile host="app.diagrams.net" modified="2022-05-17T05:08:02.205Z" agent="5.0 (Windows NT 10.0; Win64; x64) AppleWebKit/537.36 (KHTML, like Gecko) Chrome/101.0.4951.67 Safari/537.36" etag="UyouxAOmZ_Q0_ycFVR4F" version="18.0.5" type="github">
  <diagram id="chEyBqHvHyaO6OamQ3Nb" name="Page-1">
    <mxGraphModel dx="782" dy="482" grid="0" gridSize="10" guides="1" tooltips="1" connect="1" arrows="1" fold="1" page="1" pageScale="1" pageWidth="827" pageHeight="1169" math="0" shadow="0">
      <root>
        <mxCell id="0" />
        <mxCell id="1" parent="0" />
        <mxCell id="UBMTEZpnfZvlLGRNxsVD-5" value="" style="edgeStyle=orthogonalEdgeStyle;rounded=0;orthogonalLoop=1;jettySize=auto;html=1;fontSize=13;" edge="1" parent="1" source="UBMTEZpnfZvlLGRNxsVD-1" target="UBMTEZpnfZvlLGRNxsVD-4">
          <mxGeometry relative="1" as="geometry" />
        </mxCell>
        <mxCell id="UBMTEZpnfZvlLGRNxsVD-1" value="创建并置零描述符集合" style="rounded=1;whiteSpace=wrap;html=1;fontStyle=1;fontSize=13;" vertex="1" parent="1">
          <mxGeometry x="287" y="76" width="147" height="46" as="geometry" />
        </mxCell>
        <mxCell id="UBMTEZpnfZvlLGRNxsVD-15" value="" style="edgeStyle=orthogonalEdgeStyle;rounded=0;orthogonalLoop=1;jettySize=auto;html=1;fontSize=13;" edge="1" parent="1" source="UBMTEZpnfZvlLGRNxsVD-4" target="UBMTEZpnfZvlLGRNxsVD-8">
          <mxGeometry relative="1" as="geometry" />
        </mxCell>
        <mxCell id="UBMTEZpnfZvlLGRNxsVD-16" value="" style="edgeStyle=orthogonalEdgeStyle;rounded=0;orthogonalLoop=1;jettySize=auto;html=1;fontSize=13;" edge="1" parent="1" source="UBMTEZpnfZvlLGRNxsVD-4" target="UBMTEZpnfZvlLGRNxsVD-13">
          <mxGeometry relative="1" as="geometry" />
        </mxCell>
        <mxCell id="UBMTEZpnfZvlLGRNxsVD-4" value="添加SSL, TUNFD" style="rounded=1;whiteSpace=wrap;html=1;fontStyle=1;fontSize=13;" vertex="1" parent="1">
          <mxGeometry x="287" y="143" width="147" height="46" as="geometry" />
        </mxCell>
        <mxCell id="UBMTEZpnfZvlLGRNxsVD-10" value="" style="edgeStyle=orthogonalEdgeStyle;rounded=0;orthogonalLoop=1;jettySize=auto;html=1;fontSize=13;" edge="1" parent="1" source="UBMTEZpnfZvlLGRNxsVD-8">
          <mxGeometry relative="1" as="geometry">
            <mxPoint x="160.5" y="230" as="targetPoint" />
          </mxGeometry>
        </mxCell>
        <mxCell id="UBMTEZpnfZvlLGRNxsVD-8" value="SSL 就绪？" style="rhombus;whiteSpace=wrap;html=1;fontSize=13;fontStyle=1" vertex="1" parent="1">
          <mxGeometry x="86" y="136" width="149" height="60" as="geometry" />
        </mxCell>
        <mxCell id="UBMTEZpnfZvlLGRNxsVD-21" style="edgeStyle=orthogonalEdgeStyle;rounded=0;orthogonalLoop=1;jettySize=auto;html=1;fontSize=13;entryX=0;entryY=0.5;entryDx=0;entryDy=0;" edge="1" parent="1" source="UBMTEZpnfZvlLGRNxsVD-11" target="UBMTEZpnfZvlLGRNxsVD-17">
          <mxGeometry relative="1" as="geometry">
            <mxPoint x="160.5" y="377" as="targetPoint" />
            <Array as="points">
              <mxPoint x="161" y="375" />
            </Array>
          </mxGeometry>
        </mxCell>
        <mxCell id="UBMTEZpnfZvlLGRNxsVD-11" value="执行socketSelected" style="rounded=1;whiteSpace=wrap;html=1;fontSize=13;fontStyle=1" vertex="1" parent="1">
          <mxGeometry x="100.5" y="232" width="120" height="60" as="geometry" />
        </mxCell>
        <mxCell id="UBMTEZpnfZvlLGRNxsVD-12" value="" style="edgeStyle=orthogonalEdgeStyle;rounded=0;orthogonalLoop=1;jettySize=auto;html=1;fontSize=13;" edge="1" parent="1" source="UBMTEZpnfZvlLGRNxsVD-13">
          <mxGeometry relative="1" as="geometry">
            <mxPoint x="575.5" y="230" as="targetPoint" />
          </mxGeometry>
        </mxCell>
        <mxCell id="UBMTEZpnfZvlLGRNxsVD-13" value="TUNFD 就绪？" style="rhombus;whiteSpace=wrap;html=1;fontSize=13;fontStyle=1" vertex="1" parent="1">
          <mxGeometry x="501" y="136" width="149" height="60" as="geometry" />
        </mxCell>
        <mxCell id="UBMTEZpnfZvlLGRNxsVD-14" value="执行&lt;br&gt;tunSelected" style="rounded=1;whiteSpace=wrap;html=1;fontSize=13;fontStyle=1" vertex="1" parent="1">
          <mxGeometry x="515.5" y="232" width="120" height="60" as="geometry" />
        </mxCell>
        <mxCell id="UBMTEZpnfZvlLGRNxsVD-24" style="edgeStyle=orthogonalEdgeStyle;rounded=0;orthogonalLoop=1;jettySize=auto;html=1;fontSize=13;entryX=0.5;entryY=0;entryDx=0;entryDy=0;" edge="1" parent="1" source="UBMTEZpnfZvlLGRNxsVD-17" target="UBMTEZpnfZvlLGRNxsVD-1">
          <mxGeometry relative="1" as="geometry">
            <mxPoint x="355" y="68" as="targetPoint" />
            <Array as="points">
              <mxPoint x="361" y="442" />
              <mxPoint x="714" y="442" />
              <mxPoint x="714" y="40" />
              <mxPoint x="361" y="40" />
              <mxPoint x="361" y="68" />
            </Array>
          </mxGeometry>
        </mxCell>
        <mxCell id="UBMTEZpnfZvlLGRNxsVD-17" value="函数执行错误或程序退出？" style="rhombus;whiteSpace=wrap;html=1;fontSize=13;fontStyle=1" vertex="1" parent="1">
          <mxGeometry x="258" y="339" width="205" height="71" as="geometry" />
        </mxCell>
        <mxCell id="UBMTEZpnfZvlLGRNxsVD-23" style="edgeStyle=orthogonalEdgeStyle;rounded=0;orthogonalLoop=1;jettySize=auto;html=1;fontSize=13;entryX=1;entryY=0.5;entryDx=0;entryDy=0;" edge="1" parent="1" target="UBMTEZpnfZvlLGRNxsVD-17">
          <mxGeometry relative="1" as="geometry">
            <mxPoint x="674.5" y="374.5" as="targetPoint" />
            <mxPoint x="577" y="292" as="sourcePoint" />
            <Array as="points">
              <mxPoint x="577" y="375" />
            </Array>
          </mxGeometry>
        </mxCell>
        <mxCell id="UBMTEZpnfZvlLGRNxsVD-25" value="NO" style="text;html=1;strokeColor=none;fillColor=none;align=center;verticalAlign=middle;whiteSpace=wrap;rounded=0;fontSize=13;" vertex="1" parent="1">
          <mxGeometry x="441" y="426" width="60" height="30" as="geometry" />
        </mxCell>
        <mxCell id="UBMTEZpnfZvlLGRNxsVD-26" value="" style="endArrow=classic;html=1;rounded=0;fontSize=13;" edge="1" parent="1">
          <mxGeometry width="50" height="50" relative="1" as="geometry">
            <mxPoint x="358" y="410" as="sourcePoint" />
            <mxPoint x="358" y="467" as="targetPoint" />
          </mxGeometry>
        </mxCell>
        <mxCell id="UBMTEZpnfZvlLGRNxsVD-27" value="关闭连接和释放" style="rounded=1;whiteSpace=wrap;html=1;fontSize=13;fontStyle=1" vertex="1" parent="1">
          <mxGeometry x="301" y="470" width="120" height="45" as="geometry" />
        </mxCell>
        <mxCell id="UBMTEZpnfZvlLGRNxsVD-28" value="YES" style="text;html=1;strokeColor=none;fillColor=none;align=center;verticalAlign=middle;whiteSpace=wrap;rounded=0;fontSize=13;" vertex="1" parent="1">
          <mxGeometry x="307" y="423" width="60" height="30" as="geometry" />
        </mxCell>
      </root>
    </mxGraphModel>
  </diagram>
</mxfile>
